Coordinates
version=1
nRows=8
nColumns=40
inDegrees=yes

Units are S.I. units (second, meters, Newtons, ...)
Angles are in degrees.

endheader
time	pelvis_tilt	pelvis_list	pelvis_rotation	pelvis_tx	pelvis_ty	pelvis_tz	hip_flexion_r	hip_adduction_r	hip_rotation_r	knee_angle_r	knee_angle_r_beta	ankle_angle_r	subtalar_angle_r	mtp_angle_r	hip_flexion_l	hip_adduction_l	hip_rotation_l	knee_angle_l	knee_angle_l_beta	ankle_angle_l	subtalar_angle_l	mtp_angle_l	lumbar_extension	lumbar_bending	lumbar_rotation	arm_flex_r	arm_add_r	arm_rot_r	elbow_flex_r	pro_sup_r	wrist_flex_r	wrist_dev_r	arm_flex_l	arm_add_l	arm_rot_l	elbow_flex_l	pro_sup_l	wrist_flex_l	wrist_dev_l
      1.10000000	     -0.20271133	      0.59934867	     -6.75429004	     -0.01748338	      0.87724286	      1.41144746	     -8.63031785	     -3.60191772	     -9.52834233	    -36.69420448	     -0.64043468	     -3.32615257	     -2.48195645	     -2.70378066	     26.62858653	     -0.13492060	      8.89032127	    -25.61925072	     -0.44714028	     -2.19764414	      2.26472581	     -5.48745790	     -2.58509463	      0.54317025	      6.65696380	      7.95349307	    -13.83590257	      6.29127614	     31.83025991	     89.95437384	      0.00000000	      0.00000000	    -12.65757997	      7.50315510	    -16.59238210	      5.74490617	     89.95437384	      0.00000000	      0.00000000
      1.11000000	      0.13218552	      1.16212209	     -6.83102692	     -0.00156580	      0.87802839	      1.41027318	     -7.71365188	     -4.77665012	     -9.82959466	    -39.56406053	     -0.69052312	     -7.76862047	     -3.41119753	     -1.71808272	     26.00280882	     -1.09633447	      8.26090085	    -27.03459559	     -0.47184271	     -0.87108763	      2.27536008	     -5.48988280	     -2.56661388	     -0.01532851	      6.23621527	      7.66944074	    -13.56704448	      6.29963200	     31.20929792	     89.95437384	      0.00000000	      0.00000000	    -12.64164083	      7.42509651	    -16.95049735	      5.44395024	     89.95437384	      0.00000000	      0.00000000
      1.12000000	      0.45100053	      1.72969012	     -6.91729206	      0.01387283	      0.87898113	      1.40913259	     -6.53011716	     -5.83903287	     -9.67926880	    -42.45188420	     -0.74092515	    -13.15850649	     -4.80552078	     -0.58955139	     25.13110124	     -2.17048630	      7.50848061	    -27.96152153	     -0.48802061	      0.44413809	      2.37541359	     -5.47915460	     -2.60422732	     -0.57914208	      5.92117849	      7.41188998	    -13.35756475	      6.48311793	     30.39851363	     89.95437384	      0.00000000	      0.00000000	    -12.40970623	      7.35413459	    -17.25348021	      5.24048124	     89.95437384	      0.00000000	      0.00000000
      1.13000000	      0.55526889	      2.36693620	     -6.87325541	      0.02865904	      0.87980778	      1.40800318	     -4.85877818	     -6.42888391	     -8.57038683	    -45.38370046	     -0.79209500	    -18.77155366	     -8.84905058	      1.63388623	     24.33044633	     -3.44516887	      6.44613855	    -28.50646212	     -0.49753162	      1.84315164	      4.85711187	     -4.82484830	     -2.50636050	     -1.22993438	      5.45795162	      7.06674465	    -13.16183373	      6.74887918	     29.83721914	     89.95437384	      0.00000000	      0.00000000	    -12.08878921	      7.43485013	    -17.14754373	      5.36310886	     89.95437384	      0.00000000	      0.00000000
      1.14000000	      0.70528310	      2.85401284	     -6.92419013	      0.04298432	      0.88065094	      1.40723397	     -2.99932545	     -6.89464202	     -7.36739256	    -48.64923709	     -0.84908937	    -22.41166344	    -10.38009206	      3.23648684	     23.31665072	     -4.28971982	      6.15042439	    -28.82103366	     -0.50302193	      3.19648860	      5.08698384	     -4.40515837	     -2.50970722	     -1.73696279	      5.07423660	      6.85724976	    -12.97563074	      7.30303525	     29.01276969	     89.95437384	      0.00000000	      0.00000000	    -11.62859723	      7.52169746	    -17.50294243	      5.50397911	     89.95437384	      0.00000000	      0.00000000
      1.15000000	      1.11743772	      3.27976656	     -6.91094242	      0.05704695	      0.88190536	      1.40655878	     -1.36940136	     -7.31936236	     -6.40261938	    -51.93798603	     -0.90648886	    -24.34019492	    -11.07123263	      3.56673617	     21.83246690	     -4.95815638	      6.39377140	    -28.78612076	     -0.50241259	      4.38981111	      4.43618021	     -4.51931108	     -2.86811892	     -2.22378496	      4.68340058	      6.73700622	    -12.71370899	      7.56057324	     28.05442554	     89.95437384	      0.00000000	      0.00000000	    -10.90512753	      7.67009215	    -17.65904676	      5.65534423	     89.95437384	      0.00000000	      0.00000000
      1.16000000	      1.07963797	      4.04556762	     -7.21902291	      0.07066997	      0.88232204	      1.40636295	      1.13211123	     -8.05762056	     -5.38090517	    -55.52173517	     -0.96903709	    -24.32475534	    -13.23327189	      3.89937794	     20.72584389	     -5.72018062	      7.31725805	    -28.37851820	     -0.49529858	      5.40149469	      3.66899854	     -4.57600771	     -2.67630829	     -3.06332291	      4.42789516	      6.58696138	    -12.37467427	      8.04843497	     27.17104157	     89.95437384	      0.00000000	      0.00000000	    -10.38926013	      7.88080491	    -18.07628082	      6.08577804	     89.95437384	      0.00000000	      0.00000000
      1.17000000	      0.54165694	      4.41243868	     -7.45057244	      0.08316514	      0.88214513	      1.40644252	      4.38290753	     -8.07979204	     -4.43933170	    -59.17913305	     -1.03287072	    -22.01343262	    -14.39832437	     11.27175337	     20.35688777	     -5.84880696	      8.49238719	    -28.32883770	     -0.49443149	      6.11374511	      2.24949498	     -2.43526843	     -2.10893634	     -3.38512973	      4.39998281	      6.23576039	    -12.22995561	      8.47272415	     26.56247637	     89.95437384	      0.00000000	      0.00000000	     -9.93919895	      8.58110763	    -21.49680656	      7.44163008	     89.95437384	      0.00000000	      0.00000000
